<?xml version="1.0" encoding="iso-8859-1"?>

<!DOCTYPE svg PUBLIC "-//W3C//DTD SVG 1.1//EN" "http://www.w3.org/Graphics/SVG/1.1/DTD/svg11.dtd">
<!-- Uploaded to: SVG Repo, www.svgrepo.com, Generator: SVG Repo Mixer Tools -->
<svg fill="#000000" version="1.1" xmlns="http://www.w3.org/2000/svg" xmlns:xlink="http://www.w3.org/1999/xlink" 
	 width="800px" height="800px" viewBox="0 0 28.152 25.683"
	 xml:space="preserve">
<g id="overlay">
	<path d="M10.605,16.937c-2.826-1.09-5.014-3.463-5.845-6.406C1.96,11.745,0,14.532,0,17.779c0,4.366,3.538,7.903,7.904,7.903
		c1.854,0,3.556-0.643,4.904-1.712c-1.4-1.68-2.246-3.839-2.246-6.191C10.563,17.495,10.581,17.215,10.605,16.937z"/>
	<path d="M23.392,10.529c-1.148,4.067-4.884,7.062-9.315,7.062c-0.585,0-1.154-0.061-1.712-0.161
		c-0.006,0.117-0.018,0.231-0.018,0.35c0,4.366,3.537,7.903,7.903,7.903c4.364,0,7.902-3.537,7.902-7.903
		C28.152,14.532,26.192,11.745,23.392,10.529z"/>
	<circle cx="14.076" cy="7.903" r="7.903"/>
</g>
<g id="Layer_1">
</g>
</svg>